HIERARCHY
ROOT Root
{
  OFFSET 0.0 0.0 0.0
  CHANNELS 6 Xposition Yposition Zposition Zrotation Yrotation Xrotation
  JOINT Hips
  {
    OFFSET 0.0 100.0 0.0
    CHANNELS 6 Xposition Yposition Zposition Zrotation Yrotation Xrotation
    JOINT Spine1
    {
      OFFSET 5.003913 -0.037094 -0.013727
      CHANNELS 3 Zrotation Yrotation Xrotation
      JOINT Spine2
      {
        OFFSET 7.125363 -1e-06 0.0
        CHANNELS 3 Zrotation Yrotation Xrotation
        JOINT Chest
        {
          OFFSET 7.594027 1e-06 0.0
          CHANNELS 3 Zrotation Yrotation Xrotation
          JOINT Neck1
          {
            OFFSET 26.313086 -0.460272 -0.181672
            CHANNELS 3 Zrotation Yrotation Xrotation
            JOINT Neck2
            {
              OFFSET 8.045911 0.0 0.0
              CHANNELS 3 Zrotation Yrotation Xrotation
              JOINT Head
              {
                OFFSET 6.432774 0.0 0.0
                CHANNELS 3 Zrotation Yrotation Xrotation
                JOINT HeadEnd
                {
                  OFFSET 16.169773 0.06451 0.00362
                  CHANNELS 3 Zrotation Yrotation Xrotation
                }
                JOINT Jaw
                {
                  OFFSET 0.108741 3.12938 0.002639
                  CHANNELS 3 Zrotation Yrotation Xrotation
                }
                JOINT LeftEye
                {
                  OFFSET 4.45173 8.166359 3.206392
                  CHANNELS 3 Zrotation Yrotation Xrotation
                }
                JOINT RightEye
                {
                  OFFSET 4.436895 8.135758 -3.222429
                  CHANNELS 3 Zrotation Yrotation Xrotation
                }
              }
            }
          }
          JOINT LeftShoulder
          {
            OFFSET 23.218927 5.195579 1.621656
            CHANNELS 3 Zrotation Yrotation Xrotation
            JOINT LeftArm
            {
              OFFSET 15.902118 2e-06 -2e-06
              CHANNELS 3 Zrotation Yrotation Xrotation
              JOINT LeftForeArm
              {
                OFFSET 28.739307 0.0 -1e-06
                CHANNELS 3 Zrotation Yrotation Xrotation
                JOINT LeftHand
                {
                  OFFSET 27.093981 -4e-06 0.0
                  CHANNELS 3 Zrotation Yrotation Xrotation
                  JOINT LeftHandThumb1
                  {
                    OFFSET 2.276781 3.380274 0.83384
                    CHANNELS 3 Zrotation Yrotation Xrotation
                    JOINT LeftHandThumb2
                    {
                      OFFSET 4.705309 -1e-06 -1e-06
                      CHANNELS 3 Zrotation Yrotation Xrotation
                      JOINT LeftHandThumb3
                      {
                        OFFSET 2.798515 0.0 3e-06
                        CHANNELS 3 Zrotation Yrotation Xrotation
                        JOINT LeftHandThumbEnd
                        {
                          OFFSET 3.180793 4e-06 -4e-06
                          CHANNELS 3 Zrotation Yrotation Xrotation
                        }
                      }
                    }
                  }
                  JOINT LeftHandIndex1
                  {
                    OFFSET 3.247786 2.352677 0.137192
                    CHANNELS 3 Zrotation Yrotation Xrotation
                    JOINT LeftHandIndex2
                    {
                      OFFSET 6.367095 1e-06 0.0
                      CHANNELS 3 Zrotation Yrotation Xrotation
                      JOINT LeftHandIndex3
                      {
                        OFFSET 3.662364 0.0 0.0
                        CHANNELS 3 Zrotation Yrotation Xrotation
                        JOINT LeftHandIndex4
                        {
                          OFFSET 2.329242 4e-06 -4e-06
                          CHANNELS 3 Zrotation Yrotation Xrotation
                          JOINT LeftHandIndexEnd
                          {
                            OFFSET 2.767823 1e-06 0.0
                            CHANNELS 3 Zrotation Yrotation Xrotation
                          }
                        }
                      }
                    }
                  }
                  JOINT LeftHandMiddle1
                  {
                    OFFSET 3.163612 0.945023 -0.406112
                    CHANNELS 3 Zrotation Yrotation Xrotation
                    JOINT LeftHandMiddle2
                    {
                      OFFSET 6.276789 3e-06 0.0
                      CHANNELS 3 Zrotation Yrotation Xrotation
                      JOINT LeftHandMiddle3
                      {
                        OFFSET 4.35652 -1e-06 4e-06
                        CHANNELS 3 Zrotation Yrotation Xrotation
                        JOINT LeftHandMiddle4
                        {
                          OFFSET 2.996877 0.0 8e-06
                          CHANNELS 3 Zrotation Yrotation Xrotation
                          JOINT LeftHandMiddleEnd
                          {
                            OFFSET 2.323256 3e-06 -4e-06
                            CHANNELS 3 Zrotation Yrotation Xrotation
                          }
                        }
                      }
                    }
                  }
                  JOINT LeftHandRing1
                  {
                    OFFSET 2.882606 -0.309162 0.107445
                    CHANNELS 3 Zrotation Yrotation Xrotation
                    JOINT LeftHandRing2
                    {
                      OFFSET 6.033198 0.0 4e-06
                      CHANNELS 3 Zrotation Yrotation Xrotation
                      JOINT LeftHandRing3
                      {
                        OFFSET 4.350578 3e-06 0.0
                        CHANNELS 3 Zrotation Yrotation Xrotation
                        JOINT LeftHandRing4
                        {
                          OFFSET 2.651321 2e-06 -7e-06
                          CHANNELS 3 Zrotation Yrotation Xrotation
                          JOINT LeftHandRingEnd
                          {
                            OFFSET 1.937663 1e-06 -4e-06
                            CHANNELS 3 Zrotation Yrotation Xrotation
                          }
                        }
                      }
                    }
                  }
                  JOINT LeftHandPinky1
                  {
                    OFFSET 2.865315 -1.525436 0.575687
                    CHANNELS 3 Zrotation Yrotation Xrotation
                    JOINT LeftHandPinky2
                    {
                      OFFSET 5.54936 1e-06 -8e-06
                      CHANNELS 3 Zrotation Yrotation Xrotation
                      JOINT LeftHandPinky3
                      {
                        OFFSET 3.070974 0.0 -4e-06
                        CHANNELS 3 Zrotation Yrotation Xrotation
                        JOINT LeftHandPinky4
                        {
                          OFFSET 1.549672 1e-06 0.0
                          CHANNELS 3 Zrotation Yrotation Xrotation
                          JOINT LeftHandPinkyEnd
                          {
                            OFFSET 1.952123 0.0 0.0
                            CHANNELS 3 Zrotation Yrotation Xrotation
                          }
                        }
                      }
                    }
                  }
                }
              }
            }
          }
          JOINT RightShoulder
          {
            OFFSET 23.161716 5.296122 -1.380114
            CHANNELS 3 Zrotation Yrotation Xrotation
            JOINT RightArm
            {
              OFFSET -16.027195 -2e-06 1.1e-05
              CHANNELS 3 Zrotation Yrotation Xrotation
              JOINT RightForeArm
              {
                OFFSET -28.736639 4e-06 2e-06
                CHANNELS 3 Zrotation Yrotation Xrotation
                JOINT RightHand
                {
                  OFFSET -27.133619 6e-06 0.0
                  CHANNELS 3 Zrotation Yrotation Xrotation
                  JOINT RightHandThumb1
                  {
                    OFFSET -2.274328 -3.351035 -0.83067
                    CHANNELS 3 Zrotation Yrotation Xrotation
                    JOINT RightHandThumb2
                    {
                      OFFSET -4.703594 -3e-06 2e-06
                      CHANNELS 3 Zrotation Yrotation Xrotation
                      JOINT RightHandThumb3
                      {
                        OFFSET -2.794935 -4e-06 -3e-06
                        CHANNELS 3 Zrotation Yrotation Xrotation
                        JOINT RightHandThumbEnd
                        {
                          OFFSET -3.183852 4e-06 1e-06
                          CHANNELS 3 Zrotation Yrotation Xrotation
                        }
                      }
                    }
                  }
                  JOINT RightHandIndex1
                  {
                    OFFSET -3.253496 -2.33755 -0.127667
                    CHANNELS 3 Zrotation Yrotation Xrotation
                    JOINT RightHandIndex2
                    {
                      OFFSET -6.344434 0.0 0.0
                      CHANNELS 3 Zrotation Yrotation Xrotation
                      JOINT RightHandIndex3
                      {
                        OFFSET -3.654871 0.0 -8e-06
                        CHANNELS 3 Zrotation Yrotation Xrotation
                        JOINT RightHandIndex4
                        {
                          OFFSET -2.327586 -1e-06 0.0
                          CHANNELS 3 Zrotation Yrotation Xrotation
                          JOINT RightHandIndexEnd
                          {
                            OFFSET -2.770001 3e-06 8e-06
                            CHANNELS 3 Zrotation Yrotation Xrotation
                          }
                        }
                      }
                    }
                  }
                  JOINT RightHandMiddle1
                  {
                    OFFSET -3.168223 -0.944764 0.411762
                    CHANNELS 3 Zrotation Yrotation Xrotation
                    JOINT RightHandMiddle2
                    {
                      OFFSET -6.266691 -1e-06 -4e-06
                      CHANNELS 3 Zrotation Yrotation Xrotation
                      JOINT RightHandMiddle3
                      {
                        OFFSET -4.348901 0.0 0.0
                        CHANNELS 3 Zrotation Yrotation Xrotation
                        JOINT RightHandMiddle4
                        {
                          OFFSET -3.00024 2e-06 -4e-06
                          CHANNELS 3 Zrotation Yrotation Xrotation
                          JOINT RightHandMiddleEnd
                          {
                            OFFSET -2.321477 -4e-06 -4e-06
                            CHANNELS 3 Zrotation Yrotation Xrotation
                          }
                        }
                      }
                    }
                  }
                  JOINT RightHandRing1
                  {
                    OFFSET -2.885654 0.293261 -0.119232
                    CHANNELS 3 Zrotation Yrotation Xrotation
                    JOINT RightHandRing2
                    {
                      OFFSET -6.032835 -1e-06 -4e-06
                      CHANNELS 3 Zrotation Yrotation Xrotation
                      JOINT RightHandRing3
                      {
                        OFFSET -4.33881 0.0 -4e-06
                        CHANNELS 3 Zrotation Yrotation Xrotation
                        JOINT RightHandRing4
                        {
                          OFFSET -2.654903 -4e-06 -4e-06
                          CHANNELS 3 Zrotation Yrotation Xrotation
                          JOINT RightHandRingEnd
                          {
                            OFFSET -1.935122 0.0 4e-06
                            CHANNELS 3 Zrotation Yrotation Xrotation
                          }
                        }
                      }
                    }
                  }
                  JOINT RightHandPinky1
                  {
                    OFFSET -2.866241 1.503904 -0.60527
                    CHANNELS 3 Zrotation Yrotation Xrotation
                    JOINT RightHandPinky2
                    {
                      OFFSET -5.553177 -2e-06 0.0
                      CHANNELS 3 Zrotation Yrotation Xrotation
                      JOINT RightHandPinky3
                      {
                        OFFSET -3.062664 -1e-06 -4e-06
                        CHANNELS 3 Zrotation Yrotation Xrotation
                        JOINT RightHandPinky4
                        {
                          OFFSET -1.546529 2e-06 4e-06
                          CHANNELS 3 Zrotation Yrotation Xrotation
                          JOINT RightHandPinkyEnd
                          {
                            OFFSET -1.952341 0.0 -4e-06
                            CHANNELS 3 Zrotation Yrotation Xrotation
                          }
                        }
                      }
                    }
                  }
                }
              }
            }
          }
        }
      }
    }
    JOINT LeftLeg
    {
      OFFSET -8.443107 2.567604 10.043214
      CHANNELS 3 Zrotation Yrotation Xrotation
      JOINT LeftShin
      {
        OFFSET 43.229198 1e-06 -1e-06
        CHANNELS 3 Zrotation Yrotation Xrotation
        JOINT LeftFoot
        {
          OFFSET 42.298611 1e-06 1e-06
          CHANNELS 3 Zrotation Yrotation Xrotation
          JOINT LeftToeBase
          {
            OFFSET 14.165858 1e-06 0.0
            CHANNELS 3 Zrotation Yrotation Xrotation
            JOINT LeftToeEnd
            {
              OFFSET 6.7141 -0.234461 0.0
              CHANNELS 3 Zrotation Yrotation Xrotation
            }
          }
        }
      }
    }
    JOINT RightLeg
    {
      OFFSET -8.303923 2.592729 -10.047278
      CHANNELS 3 Zrotation Yrotation Xrotation
      JOINT RightShin
      {
        OFFSET -43.369682 0.0 1e-06
        CHANNELS 3 Zrotation Yrotation Xrotation
        JOINT RightFoot
        {
          OFFSET -42.260784 4e-06 2e-06
          CHANNELS 3 Zrotation Yrotation Xrotation
          JOINT RightToeBase
          {
            OFFSET -14.222245 -2e-06 -1e-06
            CHANNELS 3 Zrotation Yrotation Xrotation
            JOINT RightToeEnd
            {
              OFFSET -6.660062 0.232574 -2e-06
              CHANNELS 3 Zrotation Yrotation Xrotation
            }
          }
        }
      }
    }
  }
}
MOTION
Frames: 4
Frame Time: 0.03333333333333333
0.0 0.0 0.0 0.0 -0.0 0.0 -3.443115 96.631775 208.126358 90.639442 1.589077 93.424522 0.56017 0.570828 0.06106 -11.65897 -0.083794 -0.1577 25.647123 -0.201416 -1.849626 52.384148 -5.140185 2.008246 -2.690322 -1.034464 0.274954 -28.900259 -2.495315 0.292088 7e-06 0.0 0.0 -0.045373 -0.075657 0.139516 0.076426 -0.118736 0.161664 0.058055 -0.036371 0.127881 -124.25853 -83.333763 146.244629 52.052692 -49.916134 11.888412 34.833061 0.02235 0.12244 -2.856499 1.549747 -8.981207 17.636627 -26.322725 52.411201 -19.466665 -14.3956 29.410393 -1e-06 -8.774822 1e-06 16.672756 -18.117416 5.656313 -0.609777 -1.795654 -3.889327 -4.807088 -11.046807 -2.937853 7e-06 -20.976011 -3e-06 -5.01997 -25.033556 -4.031879 9e-06 1e-06 -2e-06 -10.634535 -5.68697 -3.565588 10.573278 -17.922951 -3.113904 3e-06 -13.821206 -1e-06 -0.501776 -31.181498 -4.027014 -11.967381 -60.164745 7.214233 -13.982716 -7.150198 -2.875044 13.772731 -8.401491 -3.218243 0.347738 -34.211555 0.771651 -0.963026 -17.73337 2.62102 -1e-06 2e-06 1e-06 -17.34642 -20.095217 -4.201786 21.757563 -1.638376 3.86643 2e-06 -6.338823 -3e-06 -1.697587 -22.591742 -6.194005 -3e-06 -4e-06 -1e-06 20.181087 -84.104324 -175.849335 43.982128 -50.912567 1.139355 45.430305 -0.734984 -0.122691 -8.226086 4.259999 -6.526191 22.182114 -20.375895 49.933319 -16.701815 -16.743528 28.476524 -6e-06 -12.6906 -2e-06 16.049696 -17.113306 2.485464 -0.105919 -1.513856 -4.275881 -5.03904 -5.612871 -2.953556 4e-06 -11.020523 1e-06 -6.111294 -15.895332 -3.840472 0.0 -1e-06 -1e-06 -10.28337 -5.680288 -4.341838 11.028294 -11.302404 -2.372634 -1.384268 -14.238577 -6.320119 -0.625439 -26.924187 -3.827598 -4.109257 -49.393509 -4.118977 -13.708524 -7.363474 -3.72094 18.14115 -14.052738 -3.242678 8e-06 -18.78727 -5e-06 -0.42971 -8.456041 2.555506 -1e-06 1e-06 1e-06 -15.923532 -20.094482 -5.473586 30.41921 -7.190827 1.735924 4e-06 -8.162928 0.0 -1.861902 -22.861465 -6.167941 0.0 -4e-06 -3e-06 -175.158752 -0.12137 -8.242361 22.494925 -0.098555 0.346431 -94.75428 4.406542 -1.970927 -6.38554 1.296922 2.120062 -0.999999 0.0 0.0 -23.118561 -5.205984 -13.22236 18.149036 0.055386 -0.267753 -63.882069 -3.405193 -8.799428 -9.131628 0.873686 1.594856 -1.000003 1e-06 -0.0 
0.0 0.0 0.0 0.0 -0.0 0.0 -4.139881 96.570168 210.008102 90.175674 1.635781 93.648949 0.584478 0.88993 -0.039499 -11.683869 -0.027573 -0.323471 25.711861 0.260605 -2.01884 52.31255 -5.19141 1.940359 -2.685692 -1.086417 0.264517 -29.375906 -2.474003 0.427473 6e-06 0.0 -0.0 -0.069514 -0.036544 0.096717 0.134648 -0.084825 0.135347 0.117481 0.00731 0.073805 -122.941154 -83.52565 144.918747 52.483406 -50.511753 11.501324 34.333473 -0.007036 0.124642 -2.798369 1.826617 -10.060484 17.636627 -26.322733 52.411198 -19.466661 -14.395597 29.410389 -1e-06 -8.774821 -1e-06 16.747713 -18.207867 5.623317 -0.609777 -1.795653 -3.889328 -4.807087 -11.046811 -2.937852 4e-06 -20.976015 -1e-06 -5.019971 -25.033556 -4.031878 8e-06 -1e-06 -1e-06 -10.634533 -5.68697 -3.565591 10.573275 -17.922951 -3.113903 3e-06 -13.821208 1e-06 -0.501775 -31.181501 -4.027017 -11.808682 -60.205399 7.170595 -13.982713 -7.150197 -2.875044 13.77273 -8.401491 -3.218241 0.347733 -34.211552 0.771658 -0.963029 -17.73337 2.621018 1e-06 2e-06 1e-06 -17.346416 -20.095217 -4.201784 21.757557 -1.638377 3.866428 1e-06 -6.338823 -1e-06 -1.697588 -22.591745 -6.194003 -2e-06 -4e-06 -0.0 20.835228 -84.500038 -176.606415 44.741688 -50.674202 1.372405 45.417229 -0.440311 -0.20023 -8.715117 4.08439 -6.954427 22.182119 -20.375895 49.933319 -16.701811 -16.74353 28.476528 -4e-06 -12.6906 -2e-06 16.038347 -17.221132 2.521129 -0.105918 -1.513856 -4.275884 -5.03904 -5.61287 -2.953552 4e-06 -11.020523 -1e-06 -6.111296 -15.895332 -3.840469 0.0 1e-06 -2e-06 -10.283369 -5.680286 -4.34184 11.028295 -11.302402 -2.372634 -1.384267 -14.238577 -6.320122 -0.625436 -26.924185 -3.827601 -4.222272 -49.455265 -3.957108 -13.708525 -7.363474 -3.720939 18.14115 -14.052739 -3.242676 8e-06 -18.787268 -3e-06 -0.429712 -8.456042 2.555506 -0.0 1e-06 1e-06 -15.923536 -20.094481 -5.473585 30.41921 -7.190825 1.735926 5e-06 -8.162925 0.0 -1.861903 -22.861467 -6.167941 0.0 -4e-06 -2e-06 -173.959808 -1.162614 -7.814134 22.665731 -0.132102 0.357573 -94.553589 4.495415 -2.365944 -6.871665 1.419177 2.175799 -1.0 -0.0 -0.0 -23.656191 -4.81337 -13.474785 22.065321 0.1166 -0.237465 -65.541718 -3.915038 -7.140276 -8.428362 0.885401 1.610901 -1.000003 0.0 0.0 
0.0 0.0 0.0 0.0 -0.0 0.0 -4.889359 96.604301 211.887741 89.804787 1.717157 93.921654 0.588459 1.063411 -0.083311 -11.682543 -0.008549 -0.498751 25.713072 0.642972 -2.168629 52.354694 -5.014317 1.890151 -2.700868 -0.888553 0.310376 -29.477356 -2.474811 0.589554 4e-06 -0.0 -1e-06 -0.071525 -0.024691 0.080471 0.147816 -0.090658 0.123175 0.138261 0.037122 0.056095 -121.005394 -84.06971 142.964737 53.159573 -50.945404 11.490386 33.770332 -0.056522 0.10847 -3.010742 1.82857 -10.528137 17.636631 -26.322729 52.411182 -19.466661 -14.395597 29.410385 -1e-06 -8.774821 -0.0 16.665949 -18.084551 5.673509 -0.609776 -1.795653 -3.889328 -4.807088 -11.046811 -2.93785 4e-06 -20.976015 -1e-06 -5.01997 -25.03356 -4.031878 6e-06 1e-06 -2e-06 -10.634533 -5.68697 -3.565585 10.573274 -17.922951 -3.113902 1e-06 -13.821206 1e-06 -0.501775 -31.181505 -4.027018 -11.65691 -60.112263 7.143356 -13.982712 -7.150197 -2.875042 13.77273 -8.401493 -3.218242 0.347734 -34.211552 0.771657 -0.963028 -17.73337 2.621021 -1e-06 2e-06 1e-06 -17.346416 -20.095215 -4.201779 21.757557 -1.638376 3.866426 2e-06 -6.338824 -1e-06 -1.697588 -22.591743 -6.194005 -2e-06 -4e-06 -1e-06 21.063892 -84.679176 -176.954453 45.452652 -50.312023 1.589049 45.353828 -0.232347 -0.216633 -9.300694 3.636592 -6.913062 22.182108 -20.375896 49.933319 -16.701811 -16.74353 28.476532 -5e-06 -12.690601 -2e-06 16.026747 -17.21438 2.497256 -0.105918 -1.513856 -4.275882 -5.039041 -5.612871 -2.953557 2e-06 -11.02052 0.0 -6.111295 -15.89533 -3.840474 -0.0 0.0 1e-06 -10.283369 -5.680287 -4.341839 11.028294 -11.302404 -2.372633 -1.384268 -14.238579 -6.320121 -0.625437 -26.924191 -3.827598 -4.132036 -49.37252 -4.042515 -13.708524 -7.363474 -3.72094 18.141153 -14.052739 -3.242677 7e-06 -18.78727 -4e-06 -0.42971 -8.456045 2.555505 0.0 0.0 0.0 -15.923536 -20.094482 -5.473581 30.41921 -7.190823 1.735926 4e-06 -8.162926 0.0 -1.8619 -22.861469 -6.167944 -1e-06 -3e-06 -1e-06 -173.243591 -2.247266 -7.435256 23.970175 -0.169006 0.417344 -93.417068 4.806207 -2.905504 -8.132711 1.519622 2.171474 -0.999999 0.0 0.0 -23.522137 -4.262883 -13.888883 24.616358 0.098625 -0.191082 -68.225693 -4.29818 -6.29938 -8.075794 0.833859 1.611844 -1.000002 -0.0 -0.0 
0.0 0.0 0.0 0.0 -0.0 0.0 -5.705533 96.794266 213.715393 89.570099 1.763751 94.259048 0.571647 1.141955 -0.110877 -11.688101 -0.032087 -0.638313 25.62912 0.888734 -2.346714 52.427841 -4.598786 1.84803 -2.727919 -0.777514 0.366328 -29.335556 -2.319236 0.609613 1e-05 0.0 -0.0 -0.07014 -0.026367 0.076121 0.14151 -0.098919 0.115217 0.13054 0.043332 0.057396 -119.283829 -84.738548 141.267517 53.969906 -50.984951 11.989874 33.169708 -0.16522 0.088582 -3.500996 1.35801 -10.348144 17.636627 -26.322729 52.411194 -19.46666 -14.395596 29.410385 -1e-06 -8.774819 -1e-06 16.565588 -17.99156 5.743989 -0.609777 -1.795654 -3.889326 -4.807088 -11.046809 -2.937852 4e-06 -20.976013 -3e-06 -5.019973 -25.033556 -4.03188 9e-06 -1e-06 -0.0 -10.634533 -5.68697 -3.565587 10.573274 -17.922947 -3.113902 1e-06 -13.821209 1e-06 -0.501778 -31.181498 -4.027017 -11.546161 -60.024879 7.147405 -13.982713 -7.150198 -2.875043 13.77273 -8.401493 -3.218243 0.347734 -34.211552 0.771656 -0.963023 -17.733368 2.62102 -1e-06 2e-06 1e-06 -17.346416 -20.095215 -4.201782 21.757557 -1.638374 3.866426 2e-06 -6.338822 1e-06 -1.697588 -22.591742 -6.194005 -3e-06 -4e-06 -1e-06 20.968088 -84.695442 -176.978134 46.072861 -49.937172 1.697928 45.430733 -0.148984 -0.238553 -9.819904 3.226426 -6.498919 22.182114 -20.375895 49.933319 -16.701811 -16.743532 28.47653 -3e-06 -12.690601 -3e-06 16.051205 -17.237129 2.487831 -0.10592 -1.513856 -4.275884 -5.039041 -5.612871 -2.953556 4e-06 -11.020523 1e-06 -6.111297 -15.89533 -3.840472 -1e-06 -0.0 0.0 -10.28337 -5.680286 -4.341839 11.028293 -11.302402 -2.372632 -1.384268 -14.238577 -6.32012 -0.625438 -26.924183 -3.827598 -4.14427 -49.384266 -4.028121 -13.708525 -7.363475 -3.720936 18.14115 -14.052739 -3.242675 8e-06 -18.78727 -2e-06 -0.429711 -8.456041 2.555505 -1e-06 1e-06 1e-06 -15.923536 -20.094481 -5.473585 30.419218 -7.190827 1.735926 3e-06 -8.162924 -0.0 -1.861902 -22.861469 -6.167944 -1e-06 -4e-06 -1e-06 -173.160538 -3.369326 -7.178883 26.526056 -0.207799 0.4678 -90.77356 5.673203 -3.414829 -10.43994 1.631061 2.14898 -0.999999 -0.0 0.0 -22.778669 -3.673721 -14.357963 25.825304 0.101589 -0.189737 -70.240898 -4.581894 -5.825221 -7.857335 0.783625 1.605056 -1.000002 -1e-06 -0.0 
